<svg xmlns="http://www.w3.org/2000/svg" viewBox="0 0 178.68 173.87">
  <path fill="#1A171B" d="M178.68 11.25V.1h-2.65c0 57.16-8.16 104.73-48.46 137.3-5.72 4.63-11.53 8.96-18.1 12.7-2.57 1.45-18.46 10.54-20.35 10.04-4.35-1.15-15.95-8-20.17-10.44-6.3-3.63-12.62-8.25-18.04-12.76-12.07-10.05-19.76-19.67-28.05-33.55C7.7 78.02 2.93 40.6 2.93.1H.47c-.94 0-.22 28 .07 30.93C1.56 41.3 1.74 50.86 3.2 60.7c2.87 19.5 7.33 34.92 14.78 49.83 13.97 27.94 38.47 48.75 67.33 61.74 4.4 1.98 2.9 2.72 10.98-1.33 10.82-5.42 20.44-10.85 29.93-18.46 12.22-9.8 22.2-20.48 30.38-34.25 16.6-27.9 22.1-62.64 22.1-106.98z"/>
</svg>