<svg xmlns="http://www.w3.org/2000/svg" width="179" height="174" viewBox="0 0 179 174">
  <g id="logo-hr" fill="#1A171B" fill-rule="nonzero">
    <path d="M94.53 35.82c.07-8.95.15-16.2.24-21.77 0-8.3 2.96-11.26 10.46-12 12.65-1.23 25.5 7.57 23 21.5-.9 5.1-6.84 12.27-10.18 12.27H94.53zM18.05.86c0 2.03 11.9-2.2 11.9 14.55v45.93c0 17.55-11.9 12.34-11.9 15.12 0 .44.13.57.56.57h30.06c.73 0 .76-1.54.76-2.27-5.2-1.2-7-6.58-7-13.04V39.4H82.3v8.14c6.6-.43 5.74-.48 12.3-.1l-.02-8.03h8.13c10.7 0 16.1 8.73 20.46 15.28 1.37 2.06 13.2 22.34 13.57 22.34h23.8v-1.5c-9.4 0-14.88-12-18.97-18.08-3.1-4.63-7.6-13.37-11.53-16.24-1-.73-5.97-2.86-6.16-3.1 4.64 0 12.2-3.16 15.04-5.2 3.98-2.84 7.28-6.72 7.28-13.33 0-13.48-15-18.8-28.36-19.27C102.4-.23 86.14.1 70.4.1v1.33c9.92.22 11.9 5.95 11.9 16.06V35.8H42.42V15.6c0-9.54 2.85-13.43 11.72-14.17V.1h-36.1v.76z"/>
    <path d="M178.68 11.25V.1h-2.65c0 57.16-8.16 104.73-48.46 137.3-5.72 4.63-11.53 8.96-18.1 12.7-2.57 1.46-18.46 10.54-20.35 10.04-4.35-1.15-15.95-8-20.17-10.44-6.3-3.63-12.62-8.25-18.04-12.76-12.07-10.05-19.76-19.67-28.04-33.55C7.7 78.02 2.93 40.6 2.93.1H.47c-.94 0-.22 28 .07 30.93C1.56 41.3 1.74 50.86 3.2 60.7c2.87 19.5 7.33 34.92 14.78 49.83 13.97 27.94 38.47 48.75 67.33 61.74 4.4 1.98 2.9 2.72 10.98-1.33 10.82-5.42 20.44-10.85 29.93-18.46 12.23-9.8 22.2-20.48 30.38-34.25 16.6-27.9 22.1-62.64 22.1-106.98z"/>
    <path d="M51.69 81c-.02 19.4 12.77 26.7 28.7 30.4v9.65H63.98c-10.46 0-9.2-6.5-10.6-8.5l.02 16.62H81.9V109.7c-10.67-.88-19.27-14.7-19.27-27.2v-3.03c0-37.38 52.53-37.1 52.53-.37 0 9.03-.7 14.63-5.66 21.55-1.6 2.27-3.48 4.1-5.8 5.72-.7.48-7.8 3.82-7.8 3.9v18.9h28.52v-17c-1.17 1.84-.16 4.08-2.97 6.67-1.72 1.58-4.4 2.2-7.6 2.2H97.6v-9.25c0-.8 28.54-3.46 28.54-31 0-19.36-16.4-30.8-35.9-30.8H87.4c-19.45 0-35.72 11.6-35.72 31z"/>
    <path d="M82.3 55c0 12.4-.14 20.5-11.9 20.5v1.52h36.1v-.95c0-.43-5.72-1.6-6.27-1.86-6.38-3.12-5.65-11.54-5.65-19.3-6.27-.98-5.6-.7-12.3.1z"/>
  </g>
</svg>