<svg xmlns="http://www.w3.org/2000/svg" width="667" height="151">
  <g fill-rule="evenodd" clip-rule="evenodd">
    <path fill="#FFFFFF" d="M104.3 36.62c-.45.23-1.4.14-2.1.14-3.64 0-14.32.17-16.32-.04-.25-1.1-.08-12.23-.08-15.1 0-.9-.05-1.65.2-2.12 0-6.52 2.32-8.85 8.2-9.43 9.96-.97 20.07 5.95 18.1 16.9-.72 4-4.4 8.74-8 9.65zM25.64 9.12c0 1.6 9.37-1.7 9.37 11.45v36.1c0 13.8-9.37 9.72-9.37 11.9 0 .35.1.45.45.45h23.63c.57 0 .6-1.2.6-1.78-4.1-.95-5.5-5.17-5.5-10.26V39.45h31.35v6.4c5.2-.35 4.5-.4 9.66-.1v-6.3h6.4c8.4 0 12.64 6.85 16.07 12 1.1 1.62 10.4 17.57 10.68 17.57h18.73v-1.2c-7.4 0-11.7-9.43-14.9-14.2-2.46-3.64-6-10.5-9.08-12.77-.78-.57-4.7-2.25-4.84-2.44 3.64 0 9.6-2.47 11.82-4.07 3.12-2.24 5.7-5.3 5.7-10.5 0-10.6-11.77-14.77-22.3-15.14-12.12-.43-24.9-.16-37.28-.16v1.04c7.8.17 9.36 4.68 9.36 12.63v14.43H44.82v-15.9c0-7.5 2.24-10.57 9.22-11.15V8.54h-28.4v.6z"/>
    <path fill="#FFFFFF" d="M151.97 17.3V8.54h-2.08c0 44.94-6.42 82.35-38.12 107.97-4.5 3.64-9.07 7.05-14.24 10-2.02 1.13-14.5 8.28-16 7.88-3.42-.9-12.54-6.3-15.86-8.2-4.96-2.86-9.92-6.5-14.18-10.04-9.5-7.9-15.55-15.47-22.07-26.38C17.53 69.8 13.76 40.38 13.76 8.54h-1.93c-.74 0-.18 22.02.05 24.32.8 8.07.95 15.6 2.1 23.32 2.26 15.34 5.76 27.47 11.62 39.2 11 21.97 30.25 38.33 52.95 48.55 3.45 1.55 2.26 2.13 8.63-1.05 8.5-4.27 16.07-8.53 23.53-14.52 9.6-7.7 17.45-16.1 23.9-26.93 13.06-21.95 17.37-49.26 17.37-84.13z"/>
    <path fill="#FFFFFF" d="M52.1 72.14c0 15.27 10.06 21 22.6 23.93v7.58H61.75c-8.22 0-7.23-5.13-8.32-6.7v13.08h22.44v-15.3c-8.4-.7-15.15-11.58-15.15-21.4v-2.38c0-29.4 41.3-29.17 41.3-.3 0 7.1-.55 11.5-4.44 16.96-1.28 1.8-2.75 3.23-4.58 4.5-.55.38-6.14 3-6.14 3.08v14.86h22.44V96.66c-.92 1.45-.13 3.2-2.33 5.24-1.37 1.25-3.47 1.74-6 1.74H88.22v-7.28c0-.62 22.44-2.7 22.44-24.37 0-15.23-12.9-24.23-28.24-24.23H80.2c-15.3 0-28.1 9.12-28.1 24.37z"/>
    <path fill="#FFFFFF" d="M76.17 51.72c0 9.73-.1 16.1-9.35 16.1v1.2H95.2v-.74c0-.34-4.48-1.26-4.92-1.47-5-2.45-4.44-9.07-4.44-15.17-4.94-.78-4.4-.56-9.67.1z"/>
    <path fill="#A7A8AA" d="M104.3 36.62H86V19.5c-.25.47-.2 1.22-.2 2.12 0 2.87-.17 14 .08 15.1 2 .2 12.7.04 16.3.04.7 0 1.67.1 2.1-.14z"/>
  </g>
  <g fill-rule="evenodd" clip-rule="evenodd">
    <path fill="#FFFFFF" d="M454.14 79.22h-6.8V56.55h8.12c15.4 0 17.2 22.67-1.32 22.67zm-23.43-24c5.88 0 8.9.23 8.9 7.94V94.9c0 7.4-2.48 8.13-8.9 8.13 0 1.5-.2 2.08.58 2.08h24.37c.78 0 .57-.58.57-2.07-6.88 0-8.88-.9-8.88-8.7v-11.9h3.97c1 0 18.15 22.68 19.28 22.68h14.74c.72 0 .57-.43.57-1.5 0-.38-7.66-3.2-8.32-3.6-2.33-1.45-4.75-3.3-6.67-5.23-2.87-2.92-9.43-9.3-11.47-12.34 1.5-.7 6.45-.48 11.17-4.13 2.65-2.06 5.27-5.58 5.27-10.23 0-11.7-11.34-14.93-23.43-14.93H430.7v2.08zM297.48 101.7h-3.22c-6.4 0-8.12-1.72-8.12-8.12V79.22h12.28c14.13 0 15.33 22.5-.94 22.5zm-3.22-25.88h-8.12V56.55h8.12c6.13 0 10.4 3.6 10.4 9.63 0 6.05-4.27 9.64-10.4 9.64zm-24.75-20.6c7.13 0 8.9.82 8.9 9.07v29.66c0 8-1.7 9.07-8.9 9.07 0 1.5-.2 2.08.57 2.08h26.46c10.2 0 21.17-4.2 21.17-13.78V89.8c0-5.8-6.83-12.44-11.72-12.85 2.62-3.57 7-2.8 7-11.53 0-9.7-10.96-12.28-21.17-12.28h-22.3v2.08zM399.34 102.84h-2.27c-12.25 0-21.17-10.6-21.17-22.86v-1.7c0-12.93 9.2-23.06 22.3-23.06 13.45 0 22.3 10.46 22.3 23.8 0 12.86-8.46 23.82-21.16 23.82zm-32.5-24.37v1.32c0 14.56 15.02 26.63 29.66 26.63h3.4c14.7 0 29.67-12.2 29.67-26.83v-.94c0-14.6-14.96-26.84-29.67-26.84h-3.4c-14.64 0-29.67 12.08-29.67 26.65zM185.6 79.22h-5.67c-.44 0-.57-.13-.57-.57v-22.1h7.56c6.74 0 10.6 4.65 10.6 11.52-.02 7.4-4.45 11.15-11.92 11.15zm-21.36-25.5v.94c0 2.26 8.13-3.2 8.13 8.7V94.9c0 11.9-8.13 6.4-8.13 8.7 0 1.07-.14 1.5.57 1.5h22.12c.77 0 .57-.58.57-2.07-7.8 0-8.14-2.2-8.14-10.77v-9.82h3.6c1.12 0 16.36 22.67 17.57 22.67h13.23c.85 0 .56-1.16.56-2.07-7.7-.17-20.45-15.3-24-20.6.68-.32 4.2-.83 5.6-1.4 4.83-1.97 9.33-6.45 9.33-12.2v-2.08c0-10-10.5-13.6-21.16-13.6h-19.3c-.43 0-.56.13-.56.56zM596.26 55.22c6.5 0 8.88.64 8.88 8.5v30.62c0 7.74-2.08 8.7-8.88 8.7v2.07h20.98c.77 0 .56-.58.56-2.07-10.63 0-9.07-4.65-9.07-15.87v-23.8c1.34.97 7.88 8.82 9.5 10.7 3.66 4.23 28.28 32.37 28.86 32.37h2.07V62.78c0-10.86 9.07-6.05 9.07-8.13 0-1.07.15-1.5-.56-1.5h-20.6c-.72 0-.57.43-.57 1.5 0 1.48 6.37-.9 8.27 3.65 1.03 2.47.62 8.03.62 11.47v24c-3.3-2.2-34.47-40.63-36.48-40.63h-12.66v2.08zM217.54 53.7v1.52c5.6 0 8.88.13 8.88 7.56v32.5c0 11.3-8.88 6.1-8.88 8.32 0 1.07-.15 1.5.56 1.5h45.17c.97 0 1.14-10.1 1.14-11.7h-2.07c-1.5 6.47-2.77 8.3-10.78 8.3h-9.26c-6.4 0-8.13-1.76-8.13-8.12V79.22c3.4 0 10.37-.13 12.76 1.04 3.66 1.8 1.8 7.28 3.1 7.28h1.7V67.7h-1.7c-1.33 0 .62 5.28-3 7.2-2.54 1.32-9.2 1.1-12.86 1.1V56.56h14.36c6.67 0 10.07 2 10.58 8.12h2.28c0-1.45-.45-11.53-1.32-11.53H218.1c-.43 0-.56.13-.56.57zM544.3 55.22c6.8 0 8.87.68 8.87 8.7v30.6c0 7.65-2.18 8.5-8.88 8.5 0 1.5-.22 2.1.55 2.1h44.98c1.14 0 1.32-10.02 1.32-11.73h-1.7c-2.14 0 1.74 8.3-11.15 8.3h-9.63c-6.32 0-7.75-2.04-7.75-8.3V79.22c7.52 0 15.3-1.16 15.3 6.24v2.08c1.62 0 2.27.22 2.27-.57V67.7h-2.27c0 7.68-1.86 8.3-11.72 8.3h-3.58V56.56h13.98c6.85 0 10.44 1.85 10.96 8.12h2.27l-.92-11.53h-42.9v2.08zM343.2 51.82h-2.26c-7 0-14.55 5.24-14.55 11.9v1.7c0 15.84 30.04 17.23 30.04 27.4v1.7c0 4.62-5.82 8.32-10.77 8.32h-2.08c-8.8 0-15.9-6.85-15.9-15.5h-2.06v19.1l1.78-.2 2.94-3.78c4.05.95 7.6 3.97 13.04 3.97h3.02c7.92 0 16.44-6.6 16.44-14.36V89.8c0-13.54-26.96-15.72-29.83-24.6-1.7-5.2 3.05-9.8 7.72-9.8h2.27c12.36 0 12.65 15.13 13.42 15.13 1.2 0 1.7.16 1.7-.57V51.82c0-.85-1.17-.57-2.08-.57-.32 1.4-.88 2.28-1.74 3.2-1.97 2.13-2.7-2.63-11.1-2.63z"/>
    <path fill="#FFFFFF" d="M163.87 121.74H655.8v-1.5H163.86v1.5"/>
    <path fill="#FFFFFF" d="M482.12 65.05h2.26c.5-5.87 3.75-8.32 10.2-8.32h13.04v39.3c0 6.52-3.5 7-8.88 7 0 1.5-.2 2.08.57 2.08h24.58c.7 0 .56-.43.56-1.5 0-2.43-9.07 3.53-9.07-9.26v-37.6h12.85c12.46 0 8.88 8.3 10.96 8.3h1.7c0-2.85-.42-5.42-.55-8.13-.25-4.87.26-3.76-4.93-3.76h-52.34l-.94 11.9zM521.6 8.36c0 1.7 5.5-1.53 5.5 4.72v21.17c0 3.78-1.8 4.34-5.5 4.34v1.13c1.58.36 14.5.36 16.07 0V38.6c-4.4 0-5.67-.86-5.67-5.3v-9.45h19.66v8.32c0 5.02-.57 6.42-5.67 6.42 0 .9-.14 1.3.55 1.3h14.93c.7.02.57-.4.57-1.3-3.54 0-5.48-.56-5.48-4.17V12.7c0-3.5 1.98-3.78 5.48-3.78V7.6H546v.76c0 2.2 5.66-2.86 5.66 6.8v6.42H532v-7.74c0-7.95 5.66-2.76 5.68-6.2L521.6 7.6v.78zM227.36 8.92c3.87 0 5.48.44 5.48 4.35v20.8c0 3.8-1.73 4.52-5.48 4.52 0 .9-.12 1.3.57 1.3h14.74c.7.02.57-.4.57-1.3-3.8 0-5.48-.7-5.48-4.54v-10.2h19.46v10.2c0 3.83-1.7 4.53-5.48 4.53 0 .9-.12 1.3.57 1.3h14.94c.7.02.57-.4.57-1.3-3.92 0-5.66-.76-5.66-4.73V13.84c0-7.45 5.67-3.6 5.67-5.48V7.6h-16.06v1.32c6.68 0 5.48 2 5.48 12.67h-19.46c0-10.83-1.2-12.68 5.48-12.68V7.6h-15.88v1.32zM414.08 23.66h-5.1V9.68h4.15c4.75 0 8.13 2.14 8.13 6.8 0 4.46-2.76 7.18-7.18 7.18zm-15.5-14.74c3.97 0 5.48.55 5.48 4.54V33.5c0 4.13-1.35 5.1-5.48 5.1 0 .9-.13 1.3.57 1.3 2.8.02 13.36.28 15.3-.17V38.6c-6.7 0-5.47-2.5-5.47-12.86h2.26c.8 0 11.2 14.17 12.3 14.17h8.68c1.22.02.85-1.23-.94-1.7-1-.24-2.02-.68-2.83-1.13-1.64-.92-3.1-2-4.5-3.26-.93-.83-7.25-7.42-7.42-8.06 4.5-.1 10.02-3.72 10.02-8.3v-1.15c0-10.8-16.85-8.7-27.97-8.7v1.32zM376.66 38.4h-1.14c-7.3 0-13.22-6.33-13.22-13.4V22.7c0-17.94 27.6-19.1 27.6.94 0 8-5.3 14.74-13.24 14.74zm-1.9 2.27h2.28c9.03 0 18.52-7.48 18.52-16.25v-1.7c0-8.7-9.8-16.06-18.9-16.06h-.94c-10.2 0-18.5 7.08-19.23 16.5-.73 9.4 9.25 17.5 18.27 17.5zM566.02 8.36c0 2.3 5.67-3.1 5.67 7.18V31.8c0 5.18-.37 6.8-5.68 6.8 0 .9-.13 1.3.57 1.3 4 .02 26.28.3 28.33-.17l.35-7.2h-1.48c-.27 3.32-1.86 5.12-5.48 5.12-13.33 0-11.9 1.56-11.9-13.8 9.97 0 8.4-.2 9.63 5.1h1.33V16.5h-1.33c-1.3 5.65-.42 5.3-9.63 5.3V9.67h7.74c4.76 0 7.38.7 7.75 5.1h1.52l-.6-7.18h-26.8v.76zM484.57 23.1v1.32c0 8.5 8.4 16.25 17 16.25h1.9c5.78 0 8.02-3.8 10-4.35l2.57 3.37c.37-.28.66-.38.66-1.3V27.82c0-.64-.34-.57-.95-.57-.9 0-2.38 11.15-12.66 11.15h-1.14c-7.02 0-11.72-6.78-11.72-13.98v-1.7c0-7.6 4.86-13.8 12.85-13.8 10.33 0 11.68 11.15 12.65 11.15.6 0 .95.08.95-.56V8.74c0-.8-.74-.56-1.52-.56l-1.6 3.08c-3.94-2.63-5.06-4.6-11.44-4.6-9.04 0-17.57 7.56-17.57 16.45zM466.8 6.66c-5.62 0-10 2.7-10 8.5 0 10.03 18.7 10.67 18.7 17.2 0 3.57-3.17 6.04-6.62 6.04h-1.32c-9.48 0-9.7-9.63-10.4-9.63h-.94v11.9l1.3-.13 1.48-2.36c4.25 1.02 3.54 2.5 10.07 2.5 5.33 0 10.4-3.98 10.4-9.27v-.93c0-9.42-18.7-9.73-18.7-16.63 0-7.4 14.35-6.9 14.35 4.53 2.42 0 1.5-2.82 1.5-5.48 0-1.4.58-6.1-.5-6.55-1.8-.77-.76 3.6-3.74 1.75-1.45-.9-3.36-1.44-5.57-1.44zM302.96 6.66c-5.46 0-10.2 2.86-10.2 8.12 0 10.7 18.7 10.8 18.7 17.58v1.13c0 2.85-3.75 4.9-7.56 4.9-5.7 0-10.2-4.1-10.2-9.63h-1.33v11.9h1.33l1.45-2.5c4.3 1.05 3.34 2.5 10.07 2.5 5.3 0 10.4-4.1 10.4-9.64 0-10.15-18.7-10.43-18.7-16.8v-1.34c0-2.07 3-3.98 5.28-3.98 9.47 0 8.28 9.45 9.45 9.45h.94v-6.42c0-1.45.54-5.92-.85-5.62-1.75.38-.23 3.47-3.5 1.66-1.4-.8-3.14-1.34-5.3-1.34zM317.45 14.97h1c1.57 0-.73-5.1 6.62-5.1h8.12V34.8c0 3.27-2.26 3.8-5.5 3.8 0 .9-.1 1.3.58 1.3h14.93c.7 0 .58-.4.58-1.3-3.24 0-5.48-.5-5.48-3.8V9.88h8.12c7.36 0 5.05 5.1 6.62 5.1h.94l-.5-7.37h-35.6l-.43 7.37zM271.77 8.92c4.17 0 5.5.45 5.5 4.73v20.03c0 4.14-1.4 4.9-5.5 4.9 0 .93-.12 1.34.57 1.34h14.74c.7 0 .57-.4.57-1.33-3.73 0-5.48-.77-5.48-4.54v-20.8c0-3.9 1.6-4.34 5.48-4.34V7.6h-15.88v1.32zM441.3 14.4v18.33c0 4.73-.94 5.86-5.68 5.86 0 .9-.13 1.3.57 1.3 2.8 0 13.54.28 15.48-.17V38.6c-6 0-5.67-2.26-5.67-8.13 0-2.83-.27-17.86.58-19.85 1.15-2.7 5.1-.92 5.1-2.26V7.6c-4.73 0-9.47.06-14.2-.03-1.22-.02-3.06.46-1.43 1.23 1.62.77 5.24-1.48 5.24 5.6zM308.52 145.52c1.68.03 1.9-3.14 2.4-4.47.32-.84 1.65-4.48 1.67-5.32l3.6 9.82h.93l4.3-12.05c-2.18-.04-4.23 8.25-4.68 10.16l-3.46-10.18c-1.93-.02-3.67 8.12-4.1 10h-.4c-.07-.98-1.4-4.23-1.8-5.37-.53-1.5-.77-4.64-2.72-4.64l4.25 12.06zM435.84 145.54h.92l3.34-10.02 3.5 10.15h.7l4.44-12.18c-1.94-.04-2.28 3.08-2.75 4.47-.58 1.7-1.46 3.74-1.87 5.5-1.8-1.32-2.06-10-4.54-10l-3.24 10.2-3.67-10.18-1.24-.04 4.38 12.08zM270.45 134.02v10.96c0 .68.37.57 1.14.57v-10.4l6.36 8c.75 1.02 1.63 2.33 2.5 2.4.45-.78.2-10.43.2-12.1h-1.14v9.83c-1.56-1.04-9.07-12.75-9.07-9.26zM342.45 139.5h-4.34v-5.1c2.8 0 7.2-.6 7.2 2.65 0 1.36-1.4 2.45-2.85 2.45zm-5.48 6.05c1.5 0 1.14.4 1.14-4.9h3.4c1.04 0 3.1 4.9 4.73 4.9 1.18 0-.1-1.02-1.16-2.43-.67-.9-1.43-1.75-2.05-2.67.82-.4 3.37-.66 3.36-3.6 0-1.86-1.83-3.4-3.74-3.4h-5.67v12.1zM472.3 144.6c-.93 0-1.34.13-1.34-.56v-9.64h3.02c6.33 0 8.55 10.2-1.7 10.2zm-2.47.38c0 .84.88.57 2.83.57 8.97 0 8.6-7.36 6.3-10.06-2.2-2.58-5.7-2.04-9.13-2.04v11.52zM380.44 134.2c7.46 0 6.27 10.4.94 10.4-1.78 0-3.3-.1-4.45-1.77-2.84-4.08.2-8.62 3.5-8.62zm-5.67 4.74v1.32c0 2.83 2.95 5.48 5.86 5.48 8.34 0 8-12.47.56-12.47h-1.14c-2.6 0-5.3 2.94-5.3 5.67zM522 145.55c1.44-.03.93-.85.93-4.72v-5.67c.4.3 3.67 4.58 4.27 5.37.76 1.02 3.5 4.93 4.6 5.02.45-.77.2-10.43.2-12.1h-1.13v9.83c-1.46-.97-7.4-9.82-8.3-9.82h-.58v12.1zM502.14 139.5h-4.72v-5.1h3.97c1.65 0 3.08.66 3.32 2.15.26 1.6-1.2 2.95-2.58 2.95zm-5.66 6.05h.94v-4.9h3.97c.17.68 2.36 3.17 3.03 4.13.5.7.48.77 1.68.77-.06-.9-2.6-3.65-3.58-5.1.98-.47 3.35-.82 3.36-3.6 0-1.8-1.85-3.4-3.74-3.4h-5.66v12.1zM550.7 144.6c-1.2 0-1.7.17-1.7-.56v-9.64h3.03c2.68 0 5.3 1.94 5.3 4.54 0 1.8-.2 3.48-2 4.6-1.3.8-2.63 1.07-4.62 1.07zm-2.63.38c0 .86.96.57 3.02.57 2.5 0 3.65-.34 5.18-1.43 4.2-2.96 1.98-10.66-3.3-10.66h-4.9v11.52zM324.7 144.98c0 .44.12.57.56.57H333c.63 0 .56-.34.57-.94h-4.16c-4.25 0-3.58 1-3.58-4.72h6.8v-.94h-6.8v-4.54h7.56v-.94h-8.7v11.52zM258.36 144.98c0 .44.13.57.56.57h8.13v-.94h-7.56v-4.72h6.8v-.94h-6.8v-4.54h7.55v-.94h-8.7v11.52zM484.2 144.98c0 .44.12.57.56.57h8.12v-.94h-7.56v-4.72h6.8v-.94h-6.8v-4.54h7.56v-.94h-8.7v11.52zM457.73 144.98c0 .44.14.57.57.57h8.12v-.94h-7.55v-4.72h6.8c-.02-.6.06-.94-.57-.94h-6.23v-4.54h7.56v-.94h-8.7v11.52zM587.94 144.98c0 .44.13.57.57.57 1.28 0-.05-2.42.98-3.56.5-.55 1.9-1.95 2.43-2.3.66.42 2.04 2.4 2.7 3.16 1.9 2.15 1.53 2.7 3.36 2.7-.3-1.36-4.77-5.57-5.1-6.8 1.16-1.75 3.55-3.27 4.9-5.3-1.92 0-2.32 1.1-4.67 3.44-.7.68-1.36 1.3-2 2-.62.7-1.28 1.6-2.02 2.1v-7.55h-1.14v11.53zM509.7 144.98c0 .44.13.57.57.57h8.13v-.94h-7c-.98 0-.56-2-.56-4.72h6.8v-.94h-6.8v-4.54h7.56v-.94h-8.7v11.52zM562.43 145.55h8.13c.62 0 .55-.34.56-.94h-7.56v-4.72h6.24c.52 0 .45-.14.57-.56-.23-.32-.03-.38-.57-.38h-6.24v-4.54h7c.62 0 .55-.34.56-.94h-8.7v12.1zM224.72 145.55h8.12c.63 0 .56-.34.57-.94h-4.15c-4.26 0-3.6 1-3.6-4.72h6.82v-.94h-6.24c-.97 0-.57-1.87-.57-4.54h7.56v-.94h-8.5v12.1zM212.43 136.48c0 4.68 7.37 2.31 7.37 5.86 0 2.35-2.42 2.27-3.6 2.27-1.63 0-2.58-1.03-3.58-1.7l-.6.73c1.2 1.77 5.38 2.88 7.63 1.2.5-.37 1.3-1.55 1.3-2.3 0-5.05-7.38-2.27-7.38-6.24 0-1.45 1.5-2.1 3.02-2.1 1.72 0 2.48 1.1 3.4 1.34l.4-.55c-.66-2.32-7.97-2.76-7.97 1.48zM579.8 145.74c2.32 0 3.55-1.16 4.93-2.08l-.72-.8c-2.3 1.6-1.58 1.75-4.75 1.75-2.35 0-4.35-2.7-4.35-5.1 0-2.8 1.98-5.3 5.1-5.3 2.13 0 2.6.9 3.78 1.7l.8-.7c-1.1-1.5-3.12-1.93-5.14-1.93-3.18 0-5.78 3.17-5.6 6.36.22 3.42 2.52 6.1 5.97 6.1zM366.83 145.55c.87 0 .92-.84 1.76-2.78.73-1.72 3.83-8.44 3.9-9.3-1.23 0-1.1.05-1.9 2.07l-3.77 8.7c-.4-1.8-1.65-4.02-2.35-5.8l-1.8-4.25c-.33-.7-.32-.74-1.33-.74.02.87 3.1 7.5 3.83 9.2.3.7.96 2.9 1.65 2.9zM535.4 134.4h3.97v10.58c0 .68.37.57 1.14.57V134.4h4.16v-.94h-9.26v.94zM600.8 134.4h3.96v10.58c0 .68.37.57 1.14.57V134.4h4.15v-.94h-9.26v.94zM349.07 134.4h3.97v10.58c0 .68.36.57 1.13.57V134.4h4.16v-.94h-9.26v.94zM390.64 134.02v10.96c0 .44.14.57.57.57h7.57v-.94h-7v-11.14c-.76 0-1.13-.1-1.13.56zM236.8 144.98c0 .44.14.57.58.57h7c.62 0 .55-.34.56-.94h-7v-11.14h-1.13v11.52zM245.7 134.4h4.15v11.15h.95V134.4c3.36 0 4.1.4 4.34-.57-.22-.3-.02-.37-.56-.37h-8.88v.94zM402.17 145.55h7.56c.63 0 .56-.34.57-.94h-3.78c-.94 0-3.4.4-3.4-.56v-10.58h-.95v12.1zM452.06 144.98c0 .44.14.57.57.57s.57-.13.57-.57v-11.52h-1.14v11.52zM290.48 140.83h4.73v-.95h-4.72v.95M419.18 140.83h4.72v-.95h-4.72v.95"/>
  </g>
</svg>