<svg xmlns="http://www.w3.org/2000/svg" width="152" height="158" viewBox="0 0 152 158">
  <g id="logo-bg" fill-rule="nonzero">
    <path id="logoBgFill" fill="#FFF" stroke="#FFF" stroke-opacity=".5" d="M151 1c0 60-8.24 82.13-10.53 88.67-11.24 32.24-38.45 56.42-64.47 67.16-26.02-10.74-53.06-34.92-64.3-67.16C9.45 83.13 1 61 1 1h150z"/>
    <g id="innerLogo" fill="#1A171B">
      <path d="M95.48 37.32c-2.33 0-7.6 0-15.8-.04 0-9.2.04-14.77.13-16.72 0-6.33 2.25-8.6 7.96-9.16 9.63-.95 19.42 5.77 17.52 16.4-.7 3.9-4.26 8.5-7.76 9.38-.42.23-1.37.14-2.04.14zm-74.1-26.84c0 1.55 9.06-1.67 9.06 11.12v35.07c0 13.4-9.07 9.43-9.07 11.55 0 .33.1.43.43.43h22.88c.55 0 .58-1.17.58-1.73-3.95-.92-5.33-5.02-5.33-9.96V39.93H70.3v6.2c5.03-.32 4.36-.36 9.35-.07v-6.13h6.18c8.14 0 12.26 6.66 15.57 11.66 1.05 1.55 10.07 17.05 10.33 17.05h18.14V67.5c-7.17 0-11.34-9.17-14.45-13.8-2.37-3.54-5.8-10.2-8.78-12.4-.76-.56-4.55-2.2-4.7-2.38 3.54 0 9.3-2.4 11.46-3.96 3.02-2.18 5.53-5.14 5.53-10.2 0-10.3-11.4-14.35-21.6-14.7-11.74-.4-24.1-.16-36.1-.16v1c7.56.18 9.06 4.56 9.06 12.28v14H39.9V21.75c0-7.3 2.17-10.26 8.92-10.82V9.9H21.37v.58z"/>
      <path d="M144.38 9.82h-2.02c0 43.73-6.25 80.13-37.1 105.05-4.38 3.54-8.82 6.85-13.86 9.7-1.3.75-6.44 3.35-15.4 7.8-8.25-4.16-13.45-6.85-15.6-8.1-4.84-2.77-9.66-6.3-13.8-9.76-9.26-7.67-15.14-15.03-21.5-25.65-11.58-19.4-15.24-48.03-15.24-79H7.98c-.72-.02-.17 21.4.05 23.64.78 7.85.92 15.17 2.03 22.7 2.2 14.9 5.62 26.7 11.32 38.12 10.7 21.38 26.8 36.28 48.9 46.22.94.43 2.85 1.18 5.72 2.23 1.18-.3 2.95-1.04 5.3-2.23 8.3-4.14 15.66-8.3 22.92-14.12 9.35-7.5 16.98-15.67 23.25-26.2 12.7-21.35 16.9-47.92 16.9-81.85V9.82z"/>
      <path d="M47.35 71.65c0 14.8 9.7 20.36 21.8 23.2v7.34H56.7c-7.95 0-7-4.98-8.04-6.5v12.7H70.3V93.53c-8.1-.68-14.63-11.22-14.63-20.75v-2.3c0-28.5 39.9-28.3 39.9-.3 0 6.9-.54 11.16-4.3 16.43-1.23 1.73-2.64 3.13-4.4 4.36-.54.35-5.94 2.9-5.94 2.97v14.4h21.67V95.43c-.9 1.4-.13 3.12-2.26 5.1-1.3 1.2-3.34 1.67-5.78 1.67H82.22v-7.07c0-.6 21.67-2.63 21.67-23.62 0-14.74-12.48-23.46-27.3-23.46h-2.14c-14.77 0-27.12 8.84-27.12 23.62z"/>
      <path d="M70.16 51.65c0 9.57-.1 15.84-9.06 15.84v1.15h27.5v-.73c0-.34-4.34-1.24-4.76-1.45-4.87-2.4-4.3-8.92-4.3-14.9-4.8-.77-4.27-.56-9.38.07z"/>
    </g>
  </g>
</svg>