<svg xmlns="http://www.w3.org/2000/svg" width="178.681" height="173.871">
  <g fill-rule="evenodd" clip-rule="evenodd">
    <path fill="#fff" d="M118.05 35.82c-.56.29-1.79.173-2.678.173-4.61 0-18.2.217-20.738-.05-.314-1.39-.1-15.55-.104-19.21-.002-1.138-.06-2.092.242-2.687 0-8.294 2.96-11.257 10.46-11.99 12.644-1.235 25.502 7.567 23.003 21.494-.915 5.096-5.59 11.105-10.185 12.27zM18.046.86c0 2.026 11.906-2.192 11.906 14.552v45.92c0 17.546-11.906 12.342-11.906 15.118 0 .436.13.567.566.567H48.66c.726 0 .756-1.537.756-2.268-5.187-1.21-6.992-6.574-6.992-13.04V39.412H82.3v8.125c6.61-.426 5.737-.477 12.29-.096l-.007-8.028h8.127c10.688 0 16.09 8.716 20.448 15.27 1.368 2.057 13.216 22.336 13.568 22.336h23.812v-1.512c-9.413 0-14.893-12-18.973-18.067-3.114-4.63-7.602-13.367-11.536-16.245-.99-.724-5.972-2.856-6.154-3.106 4.634 0 12.205-3.147 15.038-5.184 3.964-2.85 7.262-6.73 7.262-13.336C146.176 6.087 131.19.767 117.82.303 102.393-.233 86.14.106 70.395.106v1.322c9.93.22 11.906 5.95 11.906 16.063v18.332H42.425v-20.22c0-9.543 2.846-13.435 11.716-14.173V.104H18.047V.86z"/>
    <path fill="#fff" d="M178.68 11.254V.104h-2.645c0 57.153-8.16 104.727-48.464 137.3-5.723 4.625-11.532 8.956-18.11 12.694-2.562 1.457-18.453 10.538-20.34 10.04-4.353-1.148-15.95-8.008-20.17-10.435-6.315-3.634-12.617-8.255-18.038-12.765-12.08-10.05-19.77-19.668-28.058-33.55C7.71 78.026 2.927 40.6 2.927.106H.47C-.473.105.245 28.11.536 31.03 1.56 41.302 1.744 50.86 3.194 60.687 6.07 80.19 10.53 95.62 17.982 110.527c13.972 27.944 38.464 48.752 67.33 61.744 4.387 1.976 2.882 2.72 10.972-1.334 10.82-5.42 20.44-10.846 29.924-18.456 12.217-9.8 22.18-20.485 30.375-34.254 16.612-27.904 22.098-62.633 22.098-106.972z"/>
    <path fill="#fff" d="M51.685 80.986c0 19.417 12.787 26.71 28.725 30.424v9.638H63.968c-10.463 0-9.198-6.51-10.583-8.504v16.63h28.537V109.71c-10.67-.89-19.276-14.72-19.276-27.212v-3.023c0-37.39 52.537-37.096 52.537-.378 0 9.034-.71 14.635-5.66 21.553-1.618 2.265-3.48 4.104-5.81 5.716-.698.48-7.807 3.826-7.807 3.91v18.898h28.536v-17.008c-1.168 1.84-.163 4.088-2.97 6.67-1.72 1.583-4.396 2.212-7.613 2.212H97.606v-9.26c0-.788 28.536-3.448 28.536-30.99 0-19.36-16.403-30.804-35.906-30.804h-2.835c-19.447 0-35.717 11.597-35.717 30.992z"/>
    <path fill="#fff" d="M82.287 55.013c.012 12.38-.125 20.493-11.894 20.493v1.512h36.096v-.945c0-.43-5.708-1.594-6.262-1.865-6.378-3.125-5.646-11.55-5.646-19.3-6.275-.99-5.594-.715-12.295.105z"/>
    <path fill="#fff" d="M118.05 35.82H94.772V14.047c-.303.596-.244 1.55-.242 2.688.005 3.658-.21 17.82.104 19.21 2.538.266 16.13.05 20.738.05.89 0 2.117.117 2.678-.173z"/>
  </g>
</svg>
