<svg xmlns="http://www.w3.org/2000/svg" viewBox="0 0 350 100">
  <g id="wortmarkeHR" fill="none" fill-rule="evenodd">
    <path fill="#1A171B" fill-rule="nonzero" d="M205.359881,51.6965222 L200.558783,51.6965222 L200.558783,35.6905108 L206.291858,35.6905108 C217.164932,35.6905108 218.435811,51.6965222 205.359881,51.6965222 Z M188.817276,34.7514726 C192.968813,34.7514726 195.101065,34.9138627 195.101065,40.3574599 L195.101065,62.767288 C195.101065,67.9920116 193.350077,68.5074235 188.817276,68.5074235 C188.817276,69.5664891 188.676067,69.9759945 189.226781,69.9759945 L206.433067,69.9759945 C206.983781,69.9759945 206.835512,69.5664891 206.835512,68.514484 C201.977931,68.514484 200.565844,67.8790446 200.565844,62.3719035 L200.565844,53.9699831 L203.368837,53.9699831 C204.074881,53.9699831 216.183531,69.983055 216.98136,69.983055 L227.388445,69.983055 C227.896797,69.983055 227.79089,69.6794561 227.79089,68.9239893 C227.79089,68.6556927 222.382595,66.6646494 221.916606,66.3822319 C220.271524,65.3584685 218.562898,64.0522876 217.207294,62.6896232 C215.180949,60.6279755 210.549302,56.1234164 209.108973,53.9770435 C210.168038,53.4828129 213.662955,53.6381425 216.995481,51.0610829 C218.866497,49.6066328 220.716332,47.1213588 220.716332,43.8382555 C220.716332,35.5775438 212.709796,33.2970225 204.173727,33.2970225 L188.810215,33.2970225 L188.810215,34.7655935 L188.817276,34.7514726 Z M94.7510692,67.5683854 L92.4776083,67.5683854 C87.9589284,67.5683854 86.7445332,66.3539902 86.7445332,61.8353103 L86.7445332,51.6965222 L95.4147503,51.6965222 C105.391148,51.6965222 106.238401,67.5825063 94.7510692,67.5825063 L94.7510692,67.5683854 Z M92.4776083,49.2959735 L86.7445332,49.2959735 L86.7445332,35.6905108 L92.4776083,35.6905108 C96.8056564,35.6905108 99.8204632,38.2322682 99.8204632,42.4897119 C99.8204632,46.7612765 96.8056564,49.2959735 92.4776083,49.2959735 L92.4776083,49.2959735 Z M75.0030259,34.7514726 C80.0371177,34.7514726 81.2868151,35.3304285 81.2868151,41.1552893 L81.2868151,62.0965464 C81.2868151,67.7448963 80.0865408,68.5003631 75.0030259,68.5003631 C75.0030259,69.5594287 74.8618172,69.9689341 75.4054708,69.9689341 L94.087388,69.9689341 C101.289034,69.9689341 109.034334,67.0035504 109.034334,60.2396514 L109.034334,59.1664649 C109.034334,55.0714113 104.212055,50.3832809 100.759501,50.093803 C102.609336,47.5732268 105.701807,48.1168805 105.701807,41.9531187 C105.701807,35.1044945 97.9635681,33.2829016 90.7548616,33.2829016 L75.0100863,33.2829016 L75.0100863,34.7514726 L75.0030259,34.7514726 Z M166.668684,68.3732752 L165.065965,68.3732752 C156.416929,68.3732752 150.119019,60.8892117 150.119019,52.2331155 L150.119019,51.0328411 C150.119019,41.9036956 156.614621,34.7514726 165.863794,34.7514726 C175.360082,34.7514726 181.608569,42.1366901 181.608569,51.5553135 C181.608569,60.6350359 175.635439,68.3732752 166.668684,68.3732752 Z M143.722263,51.1669894 L143.722263,52.0989672 C143.722263,62.3789639 154.327039,70.9009118 164.66352,70.9009118 L167.064068,70.9009118 C177.442911,70.9009118 188.012386,62.2871782 188.012386,51.9577584 L188.012386,51.2940773 C188.012386,40.9858388 177.449972,32.3438635 167.064068,32.3438635 L164.66352,32.3438635 C154.327039,32.3438635 143.715202,40.8728718 143.715202,51.159929 L143.722263,51.1669894 Z M15.7588962,51.6965222 L11.7556282,51.6965222 C11.4449689,51.6965222 11.3531832,51.6047365 11.3531832,51.2940773 L11.3531832,35.6905108 L16.6908739,35.6905108 C21.4496087,35.6905108 24.1749375,38.9736141 24.1749375,43.8241346 C24.1608166,49.0488582 21.0330428,51.6965222 15.7588962,51.6965222 L15.7588962,51.6965222 Z M0.677801985,33.692407 L0.677801985,34.3560881 C0.677801985,35.951747 6.41793755,32.0967482 6.41793755,40.4986686 L6.41793755,62.767288 C6.41793755,71.1692084 0.677801985,67.2859679 0.677801985,68.9098685 C0.677801985,69.6653353 0.578955862,69.9689341 1.08024691,69.9689341 L16.6979343,69.9689341 C17.241588,69.9689341 17.1003792,69.5594287 17.1003792,68.5074235 C11.5932381,68.5074235 11.3531832,66.9541273 11.3531832,60.9033325 L11.3531832,53.9699831 L13.8949407,53.9699831 C14.6857097,53.9699831 25.4458162,69.9759945 26.3001291,69.9759945 L35.6410877,69.9759945 C36.2412249,69.9759945 36.0364722,69.1569838 36.0364722,68.514484 C30.5999354,68.3944565 21.5978778,57.7120148 19.0914226,53.9699831 C19.5715323,53.7440491 22.0568063,53.3839668 23.0452675,52.9815218 C26.4554587,51.5906157 29.6326555,48.4275397 29.6326555,44.3677883 L29.6326555,42.8992173 C29.6326555,35.83878 22.2191963,33.2970225 14.6927701,33.2970225 L1.06612604,33.2970225 C0.762527233,33.2970225 0.670741548,33.3888082 0.670741548,33.692407 L0.677801985,33.692407 Z M305.702816,34.7514726 C310.2921,34.7514726 311.972484,35.2033406 311.972484,40.7528443 L311.972484,62.3719035 C311.972484,67.836682 310.503913,68.514484 305.702816,68.514484 L305.702816,69.9759945 L320.515614,69.9759945 C321.059267,69.9759945 320.910998,69.5664891 320.910998,68.514484 C313.405753,68.514484 314.507181,65.2313806 314.507181,57.3095699 L314.507181,40.505729 C315.45328,41.1905915 320.070806,46.7330348 321.214597,48.060397 C323.798717,51.046962 341.181514,70.9150327 341.591019,70.9150327 L343.05253,70.9150327 L343.05253,40.0891632 C343.05253,32.4215283 349.456346,35.8175986 349.456346,34.3490277 C349.456346,33.5935609 349.562253,33.2899621 349.060962,33.2899621 L334.516461,33.2899621 C334.008109,33.2899621 334.114016,33.5935609 334.114016,34.3490277 C334.114016,35.3939724 338.611515,33.7135883 339.952998,36.9260873 C340.680223,38.6700153 340.390745,42.5956185 340.390745,45.0244089 L340.390745,61.9694586 C338.0608,60.4161623 316.053417,33.2829016 314.634269,33.2829016 L305.695756,33.2829016 L305.695756,34.7514726 L305.702816,34.7514726 Z M38.309933,33.6782861 L38.309933,34.7514726 C42.2637779,34.7514726 44.5796014,34.8432583 44.5796014,40.0891632 L44.5796014,63.0355846 C44.5796014,71.0138788 38.309933,67.3424514 38.309933,68.9098685 C38.309933,69.6653353 38.2040265,69.9689341 38.7053175,69.9689341 L70.597313,69.9689341 C71.2821754,69.9689341 71.4022029,62.8378924 71.4022029,61.7082224 L69.9406923,61.7082224 C68.8816267,66.2763253 67.9849512,67.5683854 62.3295409,67.5683854 L55.7915759,67.5683854 C51.272896,67.5683854 50.0514403,66.3257484 50.0514403,61.8353103 L50.0514403,51.6965222 C52.451989,51.6965222 57.3731139,51.6047365 59.0605584,52.4308077 C61.6446784,53.7016864 60.3314371,57.5708061 61.249294,57.5708061 L62.4495683,57.5708061 L62.4495683,43.5628984 L61.249294,43.5628984 C60.3102558,43.5628984 61.6870411,47.2908093 59.1311628,48.6464133 C57.3378117,49.578391 52.6355604,49.4230614 50.0514403,49.4230614 L50.0514403,35.6975712 L60.1902284,35.6975712 C64.8995401,35.6975712 67.3000888,37.1096587 67.6601711,41.4306463 L69.2699508,41.4306463 C69.2699508,40.4068829 68.9522311,33.2899621 68.337973,33.2899621 L38.7053175,33.2899621 C38.4017187,33.2899621 38.309933,33.3817478 38.309933,33.692407 L38.309933,33.6782861 Z M269.016784,34.7514726 C273.817881,34.7514726 275.279392,35.2315823 275.279392,40.8940531 L275.279392,62.4989914 C275.279392,67.9002259 273.740216,68.5003631 269.009723,68.5003631 C269.009723,69.5594287 268.854394,69.983055 269.398047,69.983055 L301.155894,69.983055 C301.960784,69.983055 302.087872,62.9084967 302.087872,61.7011619 L300.887598,61.7011619 C299.376664,61.7011619 302.116114,67.5613249 293.01521,67.5613249 L286.216009,67.5613249 C281.753813,67.5613249 280.74417,66.1209957 280.74417,61.7011619 L280.74417,51.6965222 C286.053619,51.6965222 291.546639,50.8775115 291.546639,56.1022351 L291.546639,57.5708061 C292.69043,57.5708061 293.149359,57.7261357 293.149359,57.1683612 L293.149359,43.5628984 L291.546639,43.5628984 C291.546639,48.9853143 290.233398,49.4230614 283.271807,49.4230614 L280.74417,49.4230614 L280.74417,35.6975712 L290.614662,35.6975712 C295.451061,35.6975712 297.985758,37.0037521 298.352901,41.4306463 L299.95562,41.4306463 L299.30606,33.2899621 L269.016784,33.2899621 L269.016784,34.758533 L269.016784,34.7514726 Z M127.031389,32.3509239 L125.43573,32.3509239 C120.493424,32.3509239 115.162794,36.0505931 115.162794,40.7528443 L115.162794,41.9531187 C115.162794,53.1368514 136.372347,54.1182522 136.372347,61.298717 L136.372347,62.4989914 C136.372347,65.7609134 132.263173,68.3732752 128.768256,68.3732752 L127.299685,68.3732752 C121.0865,68.3732752 116.07359,63.5368757 116.07359,57.4295974 L114.61914,57.4295974 L114.61914,70.9150327 L115.875898,70.7738239 L117.951666,68.1049786 C120.811143,68.7757202 123.317599,70.9079722 127.158477,70.9079722 L129.290729,70.9079722 C134.882595,70.9079722 140.898088,66.2480836 140.898088,60.7691842 L140.898088,59.1664649 C140.898088,49.6066328 121.863149,48.0674574 119.836803,41.7977891 C118.636529,38.1263617 121.990236,34.8785605 125.287461,34.8785605 L126.89018,34.8785605 C135.61688,34.8785605 135.821633,45.5610022 136.365287,45.5610022 C137.212539,45.5610022 137.565561,45.6739692 137.565561,45.1585573 L137.565561,32.3509239 C137.565561,31.7507867 136.73949,31.948479 136.09699,31.948479 C135.871056,32.9369402 135.475672,33.5582587 134.868474,34.2078189 C133.477568,35.7116921 132.962156,32.3509239 127.031389,32.3509239 L127.031389,32.3509239 Z M226.710643,41.6918825 C227.063665,37.5474058 229.358307,35.8175986 233.912289,35.8175986 L243.119099,35.8175986 L243.119099,63.5651174 C243.119099,68.1685226 240.647946,68.5074235 236.849431,68.5074235 C236.849431,69.5664891 236.708222,69.9759945 237.251876,69.9759945 L254.606431,69.9759945 C255.100662,69.9759945 255.001816,69.6723957 255.001816,68.9169289 C255.001816,67.2012426 248.597999,71.4092633 248.597999,62.3789639 L248.597999,35.8317195 L257.670661,35.8317195 C266.467966,35.8317195 263.940329,41.6918825 265.4089,41.6918825 L266.609175,41.6918825 C266.609175,39.6796579 266.312636,37.8651255 266.22085,35.951747 C266.04434,32.513314 266.404422,33.2970225 262.740055,33.2970225 L225.785726,33.2970225 L225.122045,41.698943 L226.710643,41.6918825 Z"/>
    <path class="red-line" fill="#E2001A" fill-rule="nonzero" d="M0.407 82L349.4 82 349.4 80 0.4 80 0.4 82"/>
    <path fill="#1A171B" fill-rule="nonzero" d="M256.872831,4.99878964 L256.872831,19.9457355 C256.872831,22.6145808 255.601953,23.0099653 252.989591,23.0099653 L252.989591,23.8077947 C254.10514,24.0619705 263.227225,24.0619705 264.335714,23.8077947 L264.335714,23.0170257 C261.229121,23.0170257 260.332446,22.4098281 260.332446,19.2749939 L260.332446,12.6028807 L274.213266,12.6028807 L274.213266,18.4771645 C274.213266,22.0215041 273.810821,23.0099653 270.209998,23.0099653 C270.209998,23.6454047 270.111151,23.9278222 270.598322,23.9278222 L281.139555,23.9278222 C281.633785,23.941943 281.542,23.6454047 281.542,23.0099653 C279.042605,23.0099653 277.67288,22.6145808 277.67288,20.0657629 L277.67288,4.73049302 C277.67288,2.25933995 279.070846,2.0616477 281.542,2.0616477 L281.542,1.12966997 L270.217058,1.12966997 L270.217058,1.66626321 C270.217058,3.21955943 274.213266,-0.353021867 274.213266,6.46736061 L274.213266,11.0001614 L260.332446,11.0001614 L260.332446,5.53538288 C260.332446,-0.0776648108 264.328653,3.58670217 264.342774,1.15791172 L252.989591,1.12966997 L252.989591,1.68038409 C252.989591,2.86653756 256.872831,0.5860163 256.872831,4.99878964 Z M49.1124022,5.13293795 L49.1124022,19.8186476 C49.1124022,22.5016138 47.8909465,23.0099653 45.2432825,23.0099653 C45.2432825,23.6454047 45.1585573,23.9278222 45.6457274,23.9278222 L56.0528121,23.9278222 C56.5470427,23.941943 56.455257,23.6454047 56.455257,23.0099653 C53.7722908,23.0099653 52.5861373,22.5157347 52.5861373,19.8045267 L52.5861373,12.6028807 L66.3257484,12.6028807 L66.3257484,19.8045267 C66.3257484,22.5086743 65.1254741,23.0029049 62.4566287,23.0029049 C62.4566287,23.6383442 62.3719035,23.9207617 62.8590737,23.9207617 L73.4073671,23.9207617 C73.9015977,23.9348826 73.809812,23.6383442 73.809812,23.0029049 C71.0421206,23.0029049 69.8136045,22.4663116 69.8136045,19.663318 L69.8136045,5.53538288 C69.8136045,0.275357056 73.8168724,2.99362543 73.8168724,1.66626321 L73.8168724,1.12966997 L62.4778101,1.12966997 L62.4778101,2.0616477 C67.1941822,2.0616477 66.3469297,3.47373517 66.3469297,11.0072218 L52.6073186,11.0072218 C52.6073186,3.36076818 51.7600662,2.05458727 56.4764383,2.05458727 L56.4764383,1.12966997 L45.2644638,1.12966997 L45.2644638,2.0616477 C47.9756718,2.0616477 49.1124022,2.37230695 49.1124022,5.13293795 Z M173.474946,12.4687323 L173.474946,2.59824094 L176.405027,2.59824094 C179.758735,2.59824094 182.145163,4.10917453 182.145163,7.39933834 C182.145163,10.5482934 180.196482,12.4687323 177.075769,12.4687323 L173.474946,12.4687323 Z M170.00121,5.26708626 L170.00121,19.4162027 C170.00121,22.3321633 169.048051,23.0170257 166.132091,23.0170257 C166.132091,23.6524651 166.040305,23.9348826 166.534536,23.9348826 C168.511458,23.9490035 175.96728,24.1325748 177.337005,23.8148552 L177.337005,23.0170257 C172.606512,23.0170257 173.474946,21.2519164 173.474946,13.9373033 L175.070604,13.9373033 C175.635439,13.9373033 182.978294,23.941943 183.754942,23.941943 L189.883402,23.941943 C190.744775,23.9560639 190.483539,23.0735092 189.219721,22.7416687 C188.513677,22.5722182 187.793512,22.2615589 187.221617,21.9438393 C186.063705,21.294279 185.032881,20.5317518 184.04442,19.6421367 C183.3878,19.0561204 178.925603,14.4032922 178.805576,13.9514242 C181.982773,13.8808198 185.880134,11.3249415 185.880134,8.0912612 L185.880134,7.2793109 C185.880134,-0.34596143 173.983297,1.13673041 166.132091,1.13673041 L166.132091,2.06870814 C168.935084,2.0616477 170.00121,2.44997176 170.00121,5.26708626 Z M149.850722,22.875817 C144.696603,22.875817 140.516824,18.4065602 140.516824,13.414831 L140.516824,11.7909304 C140.516824,-0.875494231 160.003631,-1.69450496 160.003631,12.4546115 C160.003631,18.1029613 156.261599,22.8616961 150.655612,22.8616961 L149.850722,22.875817 Z M150.923909,24.4785363 C157.299484,24.4785363 163.999839,19.1973291 163.999839,13.0053256 L163.999839,11.8050512 C163.999839,5.66247075 157.08061,0.465988865 150.655612,0.465988865 L149.991931,0.465988865 C142.790285,0.465988865 136.930122,5.4647785 136.41471,12.1157105 C135.899298,18.7525216 142.945614,24.4714758 149.314129,24.4714758 L150.923909,24.4785363 Z M288.355322,6.73565723 L288.355322,18.2159283 C288.355322,21.8732349 288.094085,23.0170257 284.344993,23.0170257 C284.344993,23.6524651 284.253207,23.9348826 284.747438,23.9348826 C287.571613,23.9490035 303.302267,24.1466957 304.749657,23.8148552 L304.996772,18.7313403 L303.951828,18.7313403 C303.761196,21.0754055 302.638586,22.3462842 300.082708,22.3462842 C290.671145,22.3462842 291.680788,23.4477124 291.680788,12.6028807 C298.720044,12.6028807 297.611555,12.4616719 298.479989,16.2037037 L299.419027,16.2037037 L299.419027,7.41345921 L298.479989,7.41345921 C297.562132,11.4026063 298.18345,11.155491 291.680788,11.155491 L291.680788,2.59118051 L297.145566,2.59118051 C300.506334,2.59118051 302.356169,3.08541112 302.617405,6.19200355 L303.690591,6.19200355 L303.266965,1.12260954 L284.344993,1.12260954 L284.344993,1.65920278 C284.352054,3.2901638 288.355322,-0.522472363 288.355322,6.73565723 Z M226.844791,13.0053256 C226.844791,19.0066973 232.775559,24.4785363 238.847535,24.4785363 L240.189018,24.4785363 C244.269951,24.4785363 245.851489,21.7955701 247.249455,21.407246 L249.063988,23.7866134 C249.325224,23.5889212 249.529977,23.5183168 249.529977,22.8687566 L249.529977,15.4058743 C249.529977,14.9540063 249.289922,15.0034294 248.859235,15.0034294 C248.223796,15.0034294 247.178851,22.875817 239.920721,22.875817 L239.115832,22.875817 C234.159405,22.875817 230.840999,18.0888405 230.840999,13.0053256 L230.840999,11.8050512 C230.840999,6.43911886 234.272372,2.0616477 239.913661,2.0616477 C247.207093,2.0616477 248.160252,9.93403534 248.845114,9.93403534 C249.26874,9.93403534 249.515856,9.99051884 249.515856,9.53865085 L249.515856,1.93455983 C249.515856,1.36972484 248.993383,1.53917534 248.442669,1.53917534 L247.312999,3.71379004 C244.531187,1.85689502 243.740418,0.465988865 239.235859,0.465988865 C232.853224,0.465988865 226.830671,5.8036795 226.830671,12.0804083 L226.844791,13.0053256 Z M207.237957,6.46736061 C207.237957,13.5489793 220.440975,14.0008473 220.440975,18.6113128 C220.440975,21.131889 218.202816,22.875817 215.766965,22.875817 L214.834987,22.875817 C208.141693,22.875817 207.986363,16.0766158 207.492133,16.0766158 L206.828452,16.0766158 L206.828452,24.4785363 L207.746308,24.3867506 L208.791253,22.7204874 C211.791939,23.440652 211.290648,24.4855967 215.901114,24.4855967 C219.664327,24.4855967 223.243968,21.6755426 223.243968,17.9405713 L223.243968,17.2839506 C223.243968,10.6330186 210.040951,10.4141451 210.040951,5.54244331 C210.040951,0.31771968 220.172678,0.670741548 220.172678,8.74082143 C221.881304,8.74082143 221.231744,6.7497781 221.231744,4.87170177 C221.231744,3.88324054 221.641249,0.564834987 220.878722,0.247115307 C219.607843,-0.296538368 220.342129,2.78887275 218.238118,1.48269184 C217.214355,0.847252481 215.865811,0.465988865 214.305455,0.465988865 C210.330428,0.465988865 207.237957,2.37230695 207.237957,6.46736061 Z M91.4185427,6.19906399 C91.4185427,13.7537319 104.621561,13.8243363 104.621561,18.6113128 L104.621561,19.4091423 C104.621561,21.4213669 101.973897,22.8687566 99.2838699,22.8687566 C95.2594206,22.8687566 92.0822238,19.9739772 92.0822238,16.0695554 L91.1431857,16.0695554 L91.1431857,24.4714758 L92.0822238,24.4714758 L93.1059873,22.7063665 C96.1419753,23.4477124 95.4641733,24.4714758 100.215848,24.4714758 C103.957879,24.4714758 107.558702,21.5766965 107.558702,17.6652142 C107.558702,10.4988703 94.3556847,10.3011781 94.3556847,5.8036795 L94.3556847,4.85758089 C94.3556847,3.39607036 96.4738159,2.04752683 98.0835956,2.04752683 C104.76983,2.04752683 103.929638,8.71964012 104.755709,8.71964012 L105.41939,8.71964012 L105.41939,4.18683934 C105.41939,3.16307593 105.800654,0.00706043734 104.819253,0.218873558 C103.583676,0.487170177 104.656863,2.66884532 102.3481,1.39090616 C101.359639,0.826071169 100.131122,0.444807553 98.6060679,0.444807553 C94.76519,0.465988865 91.4185427,2.48527394 91.4185427,6.19906399 Z M109.556806,6.3332123 C110.665295,6.3332123 109.041394,2.73238925 114.230816,2.73238925 L119.963891,2.73238925 L119.963891,20.3340595 C119.963891,22.6428226 118.368232,23.0170257 116.08065,23.0170257 C116.08065,23.6524651 116.010046,23.9348826 116.490156,23.9348826 L127.031389,23.9348826 C127.525619,23.9348826 127.440894,23.6524651 127.440894,23.0170257 C125.153312,23.0170257 123.571774,22.6640039 123.571774,20.3340595 L123.571774,2.73944969 L129.30485,2.73944969 C134.501331,2.73944969 132.87037,6.34027273 133.978859,6.34027273 L134.64254,6.34027273 L134.289518,1.13673041 L109.154361,1.13673041 L108.850763,6.34027273 L109.556806,6.3332123 Z M76.5986847,2.0616477 C79.5428871,2.0616477 80.4819253,2.37936738 80.4819253,5.40123457 L80.4819253,19.5432906 C80.4819253,22.4663116 79.4934641,23.0029049 76.5986847,23.0029049 C76.5986847,23.6595255 76.5139595,23.9490035 77.0011297,23.9490035 L87.4082143,23.9490035 C87.9024449,23.9490035 87.8106592,23.666586 87.8106592,23.0099653 C85.1771161,23.0099653 83.9415396,22.4663116 83.9415396,19.8045267 L83.9415396,5.11881707 C83.9415396,2.36524651 85.0712096,2.05458727 87.8106592,2.05458727 L87.8106592,1.12966997 L76.5986847,1.12966997 L76.5986847,2.0616477 Z M196.294279,18.872549 C196.294279,22.2121359 195.630598,23.0099653 192.283951,23.0099653 C192.283951,23.6454047 192.192165,23.9278222 192.686396,23.9278222 C194.663318,23.9278222 202.246228,24.1255144 203.615953,23.8077947 L203.615953,23.0170257 C199.37969,23.0170257 199.612685,21.4213669 199.612685,17.2768902 C199.612685,15.2787864 199.422053,4.66694908 200.02219,3.26192205 C200.83414,1.35560397 203.623013,2.61236182 203.623013,1.66626321 L203.623013,1.12966997 C200.283426,1.12966997 196.936779,1.1720326 193.597192,1.10848866 C192.735819,1.09436779 191.436698,1.43326878 192.587549,1.97692246 C193.73134,2.52057613 196.287219,0.931977729 196.287219,5.93076737 L196.294279,18.872549 Z M93.0000807,94.95 L93.0000807,94 L89.4773255,94 L89.4773255,94.95 L93.0000807,94.95 Z M184.079722,94.95 L184.079722,94 L180.549504,94 L180.549504,94.95 L184.079722,94.95 Z"/>
    <g fill="#1A171B" stroke="#1A171B" stroke-width=".5" transform="translate(34.398 89.385)">
      <path d="M158.23117 9.0189346L158.561316 9.0189346 161.025621 1.43736603 163.501717 9.0189346 163.831863 9.0189346 166.685268.706328313 166.272585.706328313 163.678581 8.39401526 161.190694.682746451 160.88413.682746451 158.408034 8.38222433 155.81403.706328313 155.377765.706328313 158.23117 9.0189346zM169.718796 8.95997994L170.119688 8.95997994 170.119688.706328313 169.718796.706328313 169.718796 8.95997994zM173.686759 8.95997994L179.558642 8.95997994 179.558642 8.59446109 174.08765 8.59446109 174.08765 4.98643623 178.980887 4.98643623 178.980887 4.62091737 174.08765 4.62091737 174.08765 1.07184717 179.499688 1.07184717 179.499688.706328313 173.686759.706328313 173.686759 8.95997994zM182.215757 8.95997994L182.215757.706328313 184.90409.706328313C187.498095.706328313 189.290316 2.49854981 189.290316 4.8213632L189.290316 4.84494506C189.290316 7.16775845 187.498095 8.95997994 184.90409 8.95997994L182.215757 8.95997994zM182.618208 8.59446109L184.917439 8.59446109C187.287416 8.59446109 188.879192 6.94373076 188.879192 4.85673599L188.879192 4.83315413C188.879192 2.74615936 187.287416 1.07184717 184.905648 1.07184717L182.618208 1.07184717 182.618208 8.59446109zM192.347489 8.95997994L198.219373 8.95997994 198.219373 8.59446109 192.748381 8.59446109 192.748381 4.98643623 197.641617 4.98643623 197.641617 4.62091737 192.748381 4.62091737 192.748381 1.07184717 198.160418 1.07184717 198.160418.706328313 192.347489.706328313 192.347489 8.95997994zM200.940051 8.95997994L200.940051.706328313 204.34763.706328313C205.397023.706328313 206.198806 1.00110159 206.705816 1.49632068 207.083126 1.8854214 207.307154 2.41601329 207.307154 3.0291417L207.307154 3.05272356C207.307154 4.44405341 206.234179 5.25762764 204.713149 5.38732788L207.460436 8.95997994 206.953426 8.95997994 204.265094 5.4344916 201.340943 5.4344916 201.340943 8.95997994 200.940051 8.95997994zM201.293073 5.06897275L204.193642 5.06897275C205.891536 5.06897275 206.858392 4.24360758 206.858392 3.07630542L206.858392 3.05272356C206.858392 1.81467582 205.903327 1.07184717 204.276178 1.07184717L201.293073 1.07184717 201.293073 5.06897275zM210.372785 8.95997994L216.244669 8.95997994 216.244669 8.59446109 210.773677 8.59446109 210.773677 4.98643623 215.666913 4.98643623 215.666913 4.62091737 210.773677 4.62091737 210.773677 1.07184717 216.185714 1.07184717 216.185714.706328313 210.372785.706328313 210.372785 8.95997994zM218.970209 8.95997994L219.35931 8.95997994 219.35931 1.33124765 225.44343 8.95997994 225.761785 8.95997994 225.761785.706328313 225.372684.706328313 225.372684 8.27610595 219.335728.706328313 218.970209.706328313 218.970209 8.95997994zM231.34109 8.95997994L231.741982 8.95997994 231.741982 1.07184717 234.689714 1.07184717 234.689714.706328313 228.405148.706328313 228.405148 1.07184717 231.34109 1.07184717 231.34109 8.95997994zM237.386004 8.95997994L237.386004.706328313 240.074336.706328313C242.668341.706328313 244.460562 2.49854981 244.460562 4.8213632L244.460562 4.84494506C244.460562 7.16775845 242.668341 8.95997994 240.074336 8.95997994L237.386004 8.95997994zM237.788454 8.59446109L240.087685 8.59446109C242.457662 8.59446109 244.049438 6.94373076 244.049438 4.85673599L244.049438 4.83315413C244.049438 2.74615936 242.457662 1.07184717 240.075894 1.07184717L237.788454 1.07184717 237.788454 8.59446109zM247.588344 8.95997994L253.460228 8.95997994 253.460228 8.59446109 247.989236 8.59446109 247.989236 4.98643623 252.882472 4.98643623 252.882472 4.62091737 247.989236 4.62091737 247.989236 1.07184717 253.401273 1.07184717 253.401273.706328313 247.588344.706328313 247.588344 8.95997994zM259.735701 9.10147112C261.197777 9.10147112 262.200006 8.47655178 262.978207 7.68655941L262.695225 7.415368C261.964187 8.16998757 261.044495 8.73595226 259.759283 8.73595226 257.672288 8.73595226 256.092304 6.97910355 256.092304 4.84494506L256.092304 4.8213632C256.092304 2.6872047 257.648706.930356 259.747492.930356 261.127031.930356 261.964187 1.50811161 262.648061 2.16840374L262.931043 1.87363047C262.12926 1.13080183 261.292104.564837142 259.759283.564837142 257.401097.564837142 255.679621 2.51034074 255.679621 4.83315413L255.679621 4.85673599C255.679621 7.20313124 257.401097 9.10147112 259.735701 9.10147112zM265.698383 8.95997994L266.099275 8.95997994 266.099275 6.70791214 268.304179 4.52658993 271.806085 8.95997994 272.324886 8.95997994 268.587161 4.25539851 272.183395.706328313 271.629222.706328313 266.099275 6.22448398 266.099275.706328313 265.698383.706328313 265.698383 8.95997994zM277.466939 8.95997994L277.867831 8.95997994 277.867831 1.07184717 280.815563 1.07184717 280.815563.706328313 274.530997.706328313 274.530997 1.07184717 277.466939 1.07184717 277.466939 8.95997994zM68.2447865 9.02133466L68.57874 9.02133466 71.0714647 1.43976609 73.5761163 9.02133466 73.9100699 9.02133466 76.7963827.708728378 76.3789408.708728378 73.75502 8.39641533 71.2384415.685146516 70.9283418.685146516 68.4236902 8.3846244 65.7997694.708728378 65.3584737.708728378 68.2447865 9.02133466zM79.7546942 8.95997994L85.6265778 8.95997994 85.6265778 8.59446109 80.1555859 8.59446109 80.1555859 4.98643623 85.0488222 4.98643623 85.0488222 4.62091737 80.1555859 4.62091737 80.1555859 1.07184717 85.5676231 1.07184717 85.5676231.706328313 79.7546942.706328313 79.7546942 8.95997994zM88.4206777 8.95997994L88.4206777.706328313 91.8282568.706328313C92.8776496.706328313 93.6794329 1.00110159 94.186443 1.49632068 94.5637527 1.8854214 94.7877804 2.41601329 94.7877804 3.0291417L94.7877804 3.05272356C94.7877804 4.44405341 93.7148057 5.25762764 92.1937756 5.38732788L94.9410625 8.95997994 94.4340525 8.95997994 91.7457203 5.4344916 88.8215694 5.4344916 88.8215694 8.95997994 88.4206777 8.95997994zM88.8215694 5.06897275L91.7221384 5.06897275C93.4200324 5.06897275 94.3868888 4.24360758 94.3868888 3.07630542L94.3868888 3.05272356C94.3868888 1.81467582 93.4318234 1.07184717 91.8046749 1.07184717L88.8215694 1.07184717 88.8215694 5.06897275zM99.7557225 8.9599786L100.156614 8.9599786 100.156614 1.07184582 103.104347 1.07184582 103.104347.706326966 96.8197807.706326966 96.8197807 1.07184582 99.7557225 1.07184582 99.7557225 8.9599786zM109.171169 9.0189346L109.501315 9.0189346 113.203667.706328313 112.790985.706328313 109.348033 8.51192457 105.905081.706328313 105.468816.706328313 109.171169 9.0189346zM119.150735 9.10147112C116.651058 9.10147112 115.0357 7.09701286 115.0357 4.84494506L115.0357 4.8213632C115.0357 2.5692954 116.662849.564837142 119.162526.564837142 121.662204.564837142 123.277561 2.5692954 123.277561 4.8213632 123.289352 4.8213632 123.289352 4.83315413 123.277561 4.84494506 123.277561 7.09701286 121.650413 9.10147112 119.150735 9.10147112zM119.171152 8.73595226C121.364265 8.73595226 122.861713 6.94373076 122.861713 4.85673599L122.861713 4.83315413C122.861713 2.74615936 121.340683.930356 119.14757.930356 116.942666.930356 115.445218 2.7225775 115.445218 4.80957227L115.445218 4.83315413C115.445218 6.9201489 116.966248 8.73595226 119.171152 8.73595226zM126.32965 8.95997994L131.706315 8.95997994 131.706315 8.59446109 126.730542 8.59446109 126.730542.706328313 126.32965.706328313 126.32965 8.95997994zM134.418511 8.95997994L139.795176 8.95997994 139.795176 8.59446109 134.819403 8.59446109 134.819403.706328313 134.418511.706328313 134.418511 8.95997994zM3.36008715 8.98087851C5.04609224 8.98087851 6.14258507 8.0457628 6.14258507 6.7833566L6.14258507 6.7599787C6.14258507 5.61446196 5.39979961 4.95988097 3.34829691 4.55076785 1.34395519 4.14165472.789813653 3.61565214.789813653 2.66884748L.789813653 2.64546959C.789813653 1.73373178 1.6858723.927194479 3.04175053.927194479 4.00855065.927194479 4.86923856 1.24279603 5.62381427 1.83893229L5.87140942 1.52333074C5.09325323.915505532 4.19719458.564837142 3.06533102.564837142 1.50901862.564837142.388945309 1.5116418.388945309 2.68053643L.388945309 2.70391432C.388945309 3.8844979 1.17889175 4.51570101 3.19502372 4.91312518 5.18757519 5.3222383 5.74171672 5.83655194 5.74171672 6.79504554L5.74171672 6.81842344C5.74171672 7.84705071 4.81028734 8.61852117 3.38366764 8.61852117 2.18106261 8.61852117 1.21426249 8.1977191.341784327 7.37949286L.0706086828 7.67171652C1.00203807 8.5250096 2.0749504 8.98087851 3.36008715 8.98087851zM9.17687904 8.93639808L14.9452564 8.93639808 14.9452564 8.57087923 9.57070401 8.57087923 9.57070401 4.96285437 14.3776851 4.96285437 14.3776851 4.59733551 9.57070401 4.59733551 9.57070401 1.04826531 14.887341 1.04826531 14.887341.682746451 9.17687904.682746451 9.17687904 8.93639808zM17.721702 8.93639808L23.0983665 8.93639808 23.0983665 8.57087923 18.1225937 8.57087923 18.1225937.682746451 17.721702.682746451 17.721702 8.93639808zM26.8637635 8.93639808L27.2646552 8.93639808 27.2646552 1.04826531 30.2123879 1.04826531 30.2123879.682746451 23.9278217.682746451 23.9278217 1.04826531 26.8637635 1.04826531 26.8637635 8.93639808zM32.9100456 8.93639808L38.7819292 8.93639808 38.7819292 8.57087923 33.3109372 8.57087923 33.3109372 4.96285437 38.2041736 4.96285437 38.2041736 4.59733551 33.3109372 4.59733551 33.3109372 1.04826531 38.7229745 1.04826531 38.7229745.682746451 32.9100456.682746451 32.9100456 8.93639808zM41.4377085 8.93852569L41.8308866 8.93852569 41.8308866 1.3097934 47.9787626 8.93852569 48.3004538 8.93852569 48.3004538.684874058 47.9072757.684874058 47.9072757 8.2546517 41.8070576.684874058 41.4377085.684874058 41.4377085 8.93852569z"/>
    </g>
  </g>
</svg>